<svg xmlns="http://www.w3.org/2000/svg" viewBox="0 0 900 500">
  <!-- 背景 -->
  <rect width="900" height="500" fill="#f9f9f9"/>
  
  <!-- Azure云环境边框 -->
  <rect x="100" y="50" width="700" height="400" rx="20" ry="20" fill="#f0f7ff" stroke="#0078d4" stroke-width="2" stroke-dasharray="5,5"/>
  <text x="400" y="80" font-family="Arial" font-size="16" text-anchor="middle" fill="#0078d4">Azure Cloud Environment</text>
  
  <!-- 客户端 -->
  <rect x="20" y="200" width="100" height="80" rx="10" ry="10" fill="#ffffff" stroke="#666666" stroke-width="2"/>
  <text x="70" y="245" font-family="Arial" font-size="14" text-anchor="middle">客户端</text>
  
  <!-- 应用网关 -->
  <rect x="200" y="150" width="500" height="200" rx="15" ry="15" fill="#e1ebf7" stroke="#0078d4" stroke-width="2"/>
  <text x="450" y="175" font-family="Arial" font-size="16" text-anchor="middle" font-weight="bold" fill="#0078d4">应用网关 (Application Gateway)</text>
  
  <!-- 前端IP配置 -->
  <rect x="220" y="190" width="120" height="140" rx="5" ry="5" fill="#ffffff" stroke="#666666" stroke-width="1"/>
  <text x="280" y="210" font-family="Arial" font-size="12" text-anchor="middle">前端IP配置</text>
  <rect x="230" y="220" width="100" height="40" rx="5" ry="5" fill="#d4edda" stroke="#28a745" stroke-width="1"/>
  <text x="280" y="245" font-family="Arial" font-size="12" text-anchor="middle">公网IP</text>
  <rect x="230" y="270" width="100" height="40" rx="5" ry="5" fill="#f8d7da" stroke="#dc3545" stroke-width="1"/>
  <text x="280" y="295" font-family="Arial" font-size="12" text-anchor="middle">私网IP</text>
  
  <!-- SNI处理层 -->
  <rect x="360" y="190" width="120" height="140" rx="5" ry="5" fill="#fff3cd" stroke="#ffc107" stroke-width="1"/>
  <text x="420" y="210" font-family="Arial" font-size="12" text-anchor="middle" font-weight="bold">SNI处理层</text>
  <text x="420" y="230" font-family="Arial" font-size="10" text-anchor="middle">Server Name Indication</text>
  
  <rect x="370" y="240" width="100" height="30" rx="5" ry="5" fill="#ffffff" stroke="#666666" stroke-width="1"/>
  <text x="420" y="260" font-family="Arial" font-size="10" text-anchor="middle">require_sni=false</text>
  
  <rect x="370" y="280" width="100" height="30" rx="5" ry="5" fill="#ffffff" stroke="#666666" stroke-width="1"/>
  <text x="420" y="300" font-family="Arial" font-size="10" text-anchor="middle">require_sni=true</text>
  
  <!-- 证书存储 -->
  <rect x="500" y="190" width="180" height="140" rx="5" ry="5" fill="#e2e3e5" stroke="#6c757d" stroke-width="1"/>
  <text x="590" y="210" font-family="Arial" font-size="12" text-anchor="middle">SSL证书存储</text>
  
  <rect x="510" y="220" width="160" height="30" rx="5" ry="5" fill="#ffffff" stroke="#6c757d" stroke-width="1"/>
  <text x="590" y="240" font-family="Arial" font-size="10" text-anchor="middle">example.jiejue.ai</text>
  
  <rect x="510" y="260" width="160" height="30" rx="5" ry="5" fill="#ffffff" stroke="#6c757d" stroke-width="1"/>
  <text x="590" y="280" font-family="Arial" font-size="10" text-anchor="middle">jiejue.ai</text>
  
  <rect x="510" y="300" width="160" height="30" rx="5" ry="5" fill="#ffffff" stroke="#6c757d" stroke-width="1"/>
  <text x="590" y="320" font-family="Arial" font-size="10" text-anchor="middle">其他域名证书...</text>
  
  <!-- 后端服务 -->
  <rect x="750" y="150" width="120" height="80" rx="10" ry="10" fill="#ffffff" stroke="#6c757d" stroke-width="2"/>
  <text x="810" y="195" font-family="Arial" font-size="14" text-anchor="middle">后端服务 1</text>
  
  <rect x="750" y="250" width="120" height="80" rx="10" ry="10" fill="#ffffff" stroke="#6c757d" stroke-width="2"/>
  <text x="810" y="295" font-family="Arial" font-size="14" text-anchor="middle">后端服务 2</text>
  
  <!-- 连接线 -->
  <!-- 客户端到应用网关 -->
  <line x1="120" y1="240" x2="200" y2="240" stroke="#666666" stroke-width="2" marker-end="url(#arrowhead)"/>
  <text x="160" y="230" font-family="Arial" font-size="10" text-anchor="middle">HTTPS请求</text>
  
  <!-- 前端到SNI -->
  <line x1="340" y1="240" x2="360" y2="240" stroke="#28a745" stroke-width="2" marker-end="url(#arrowhead)"/>
  <line x1="340" y1="290" x2="360" y2="290" stroke="#dc3545" stroke-width="2" marker-end="url(#arrowhead)"/>
  
  <!-- SNI到证书 -->
  <line x1="480" y1="240" x2="500" y2="240" stroke="#ffc107" stroke-width="2" marker-end="url(#arrowhead)"/>
  <line x1="480" y1="290" x2="500" y2="290" stroke="#ffc107" stroke-width="2" marker-end="url(#arrowhead)"/>
  
  <!-- 证书到后端 -->
  <line x1="680" y1="235" x2="750" y2="190" stroke="#6c757d" stroke-width="2" marker-end="url(#arrowhead)"/>
  <line x1="680" y1="275" x2="750" y2="290" stroke="#6c757d" stroke-width="2" marker-end="url(#arrowhead)"/>
  
  <!-- 箭头标记 -->
  <defs>
    <marker id="arrowhead" markerWidth="10" markerHeight="7" refX="9" refY="3.5" orient="auto">
      <polygon points="0 0, 10 3.5, 0 7" fill="#666666"/>
    </marker>
  </defs>
  
  <!-- 注释框 -->
  <rect x="150" y="380" width="600" height="50" rx="5" ry="5" fill="#d1ecf1" stroke="#17a2b8" stroke-width="1"/>
  <text x="450" y="410" font-family="Arial" font-size="12" text-anchor="middle" fill="#0c5460">
    <tspan x="450" dy="0">关键点: 私网IP环境中，require_sni=true 强制客户端提供主机名，</tspan>
    <tspan x="450" dy="20">使应用网关能够正确选择SSL证书，避免连接重置问题</tspan>
  </text>
</svg>
